<svg width="228" height="218" viewBox="0 0 228 218" fill="none" xmlns="http://www.w3.org/2000/svg">
<path fill-rule="evenodd" clip-rule="evenodd" d="M130 1.00001L130.479 0.857957L130.336 0.373535L129.853 0.522121L130 1.00001ZM48.7259 119.917C45.3531 121.608 43.8627 123.28 42.7846 125.023C42.4648 125.54 42.1887 126.047 41.9144 126.55C41.138 127.973 40.3766 129.369 38.6828 130.905C34.6652 134.546 28.6287 138.271 23.5679 141.393L23.5071 141.431L23.4839 141.445C23.2004 141.62 22.9201 141.793 22.6434 141.964C20.0423 143.571 17.7538 145.006 16.2653 146.148C15.5295 146.712 14.9416 147.24 14.6185 147.71C14.4582 147.944 14.3216 148.221 14.3183 148.521C14.3145 148.861 14.4821 149.138 14.7439 149.325C15.3985 149.792 16.5829 150.321 18.0795 150.856C19.5919 151.397 21.4699 151.96 23.5472 152.485C27.6996 153.535 32.6759 154.439 37.1543 154.701C42.638 155.022 49.5509 153.928 55.063 152.766C57.8254 152.184 60.2477 151.582 61.9797 151.125C62.7583 150.92 63.3977 150.744 63.866 150.612C63.8007 150.84 63.7264 151.11 63.6458 151.421C63.3588 152.526 62.9921 154.143 62.669 156.204C62.0229 160.326 61.5513 166.225 62.2434 173.35C62.5636 176.647 60.8023 179.198 58.1406 181.288C55.4717 183.384 51.9876 184.942 49.0503 186.249L48.9878 186.277L48.9877 186.277L48.9875 186.277C47.5574 186.914 46.2483 187.496 45.2636 188.048C44.7636 188.328 44.3259 188.612 43.9905 188.905C43.6626 189.191 43.3808 189.53 43.2808 189.932C43.1714 190.371 43.3025 190.786 43.598 191.142C43.8776 191.48 44.3146 191.781 44.8785 192.066C46.0115 192.639 47.8303 193.231 50.4796 193.883C55.9114 195.219 61.5066 194.116 66.8096 191.757C72.1128 189.399 77.1608 185.769 81.5264 181.992C85.8944 178.213 89.5952 174.273 92.2031 171.279C93.5075 169.782 94.5396 168.52 95.2462 167.632C95.3186 167.541 95.3876 167.454 95.4532 167.371C95.4867 167.328 95.5193 167.287 95.5511 167.246C95.5855 167.202 95.6189 167.16 95.6512 167.119L104.952 216.439L105.111 217.285L105.767 216.727L105.443 216.346C105.767 216.727 105.767 216.727 105.768 216.726L105.769 216.725L105.773 216.722L105.787 216.709L105.843 216.661C105.892 216.618 105.965 216.555 106.059 216.472C106.246 216.305 106.521 216.059 106.869 215.736C107.566 215.09 108.558 214.141 109.748 212.92C112.126 210.478 115.292 206.95 118.446 202.6C124.431 194.344 130.41 183.077 130.809 170.637C132.22 173.002 133.632 174.203 135.094 175.113C135.611 175.435 136.116 175.712 136.618 175.988C138.04 176.768 139.434 177.533 140.964 179.232C144.595 183.259 148.302 189.306 151.41 194.376L151.411 194.376L151.423 194.396C151.61 194.702 151.796 195.004 151.979 195.302C153.579 197.907 155.007 200.2 156.144 201.692C156.707 202.429 157.233 203.018 157.703 203.343C157.935 203.504 158.212 203.641 158.512 203.645C158.853 203.65 159.13 203.483 159.317 203.222C159.787 202.569 160.319 201.386 160.858 199.891C161.403 198.38 161.972 196.503 162.502 194.428C163.564 190.278 164.482 185.304 164.756 180.827C165.093 175.344 164.018 168.428 162.872 162.913C162.297 160.149 161.702 157.725 161.25 155.991C161.047 155.212 160.873 154.572 160.742 154.104C160.97 154.169 161.24 154.245 161.55 154.326C162.654 154.616 164.27 154.987 166.331 155.316C170.451 155.974 176.348 156.462 183.476 155.79C186.773 155.479 189.32 157.247 191.402 159.915C193.49 162.59 195.039 166.078 196.338 169.019L196.365 169.082C196.998 170.514 197.577 171.824 198.126 172.811C198.405 173.311 198.687 173.75 198.979 174.086C199.264 174.415 199.602 174.698 200.004 174.799C200.443 174.909 200.859 174.779 201.216 174.485C201.553 174.206 201.856 173.77 202.143 173.207C202.719 172.076 203.316 170.258 203.975 167.611C205.327 162.183 204.239 156.585 201.895 151.275C199.552 145.965 195.936 140.907 192.171 136.531C188.404 132.153 184.475 128.441 181.489 125.824C179.995 124.516 178.736 123.48 177.85 122.771C177.662 122.621 177.491 122.485 177.337 122.365L226.684 113.202L227.531 113.045L226.974 112.388L226.936 112.419C226.954 112.404 226.963 112.396 226.968 112.392C226.973 112.387 226.973 112.387 226.973 112.387L226.972 112.386L226.969 112.382L226.957 112.367L226.908 112.311C226.885 112.284 226.855 112.25 226.819 112.209C226.79 112.176 226.757 112.138 226.72 112.095C226.554 111.907 226.308 111.632 225.986 111.283C225.343 110.585 224.395 109.589 223.178 108.396C220.743 106.012 217.224 102.836 212.883 99.6697C204.66 93.6731 193.438 87.6746 181.028 87.2192C184.372 85.2428 185.655 83.5315 186.501 81.7707C186.735 81.2818 186.931 80.8065 187.126 80.3331C187.708 78.9205 188.282 77.5257 189.864 75.8425C193.579 71.892 199.299 67.6977 204.094 64.1814L204.11 64.1697C204.4 63.9568 204.687 63.7465 204.97 63.5388C207.435 61.7292 209.602 60.1167 210.994 58.8596C211.683 58.2382 212.226 57.665 212.511 57.1705C212.652 56.9252 212.766 56.6378 212.746 56.3388C212.722 55.999 212.533 55.7368 212.257 55.5712C211.567 55.1573 210.345 54.7248 208.81 54.3108C207.259 53.8924 205.342 53.4808 203.23 53.1231C199.007 52.4082 193.974 51.9041 189.489 52.0001C183.997 52.1176 177.194 53.7594 171.792 55.3575C169.085 56.1584 166.718 56.9519 165.028 57.5452C164.28 57.808 163.664 58.0316 163.209 58.1993C163.251 58.0098 163.295 57.7923 163.343 57.5475C163.541 56.5151 163.778 54.997 163.936 53.0402C164.251 49.1264 164.25 43.4581 162.992 36.4121C162.41 33.1492 163.964 30.4013 166.456 28.0091C168.904 25.658 172.175 23.7321 174.966 22.0891L175.129 21.9933C176.528 21.169 177.81 20.4094 178.763 19.7107C179.239 19.361 179.652 19.0133 179.961 18.6663C180.266 18.3248 180.509 17.9417 180.572 17.5203C180.641 17.0675 180.492 16.6502 180.172 16.2951C179.867 15.9578 179.406 15.6723 178.818 15.4172C177.639 14.9057 175.774 14.445 173.08 14.0065C167.559 13.1077 162.07 14.6538 156.972 17.428C151.874 20.2023 147.132 24.2236 143.081 28.3367C139.029 32.4521 135.654 36.6747 133.293 39.8667C132.113 41.4633 131.184 42.8035 130.551 43.7454C130.419 43.9419 130.299 44.1211 130.193 44.2818C130.114 43.9638 130.023 43.582 129.925 43.1451C129.616 41.7558 129.244 39.813 128.997 37.6006C128.499 33.1558 128.513 27.7059 130.455 23.4579C132.513 18.9558 132.5 13.2807 131.997 8.78814C131.744 6.5318 131.366 4.55267 131.05 3.13734C130.893 2.42937 130.751 1.86168 130.648 1.47001C130.596 1.27416 130.554 1.12226 130.525 1.01877C130.511 0.967028 130.499 0.927384 130.492 0.900397L130.483 0.869477L130.48 0.861266L130.48 0.858996L130.479 0.858322C130.479 0.858114 130.479 0.857957 130 1.00001C129.853 0.522121 129.853 0.522214 129.852 0.522338L129.851 0.52274L129.846 0.524099L129.831 0.529051L129.771 0.54801C129.72 0.564717 129.644 0.589621 129.545 0.623074C129.348 0.689978 129.06 0.791089 128.691 0.929229C127.953 1.20549 126.893 1.62997 125.596 2.22527C123.002 3.41565 119.458 5.29051 115.646 8.03155C108.177 13.4013 99.6699 22.1051 95.292 35.5039C93.4089 32.0533 91.6855 30.6654 89.9019 29.7152C89.401 29.4484 88.9126 29.2221 88.4268 28.9972L88.4268 28.9971C87.0013 28.337 85.5991 27.6876 83.9755 26.0548C80.1521 22.2099 76.1525 16.3521 72.7993 11.4411L72.7993 11.441L72.7939 11.433C72.5889 11.1329 72.3864 10.8363 72.1865 10.5439C70.4607 8.01984 68.922 5.80014 67.7124 4.36603C67.1145 3.65714 66.5599 3.09429 66.0753 2.79325C65.8348 2.6439 65.5514 2.52029 65.2519 2.53082C64.9115 2.54277 64.6431 2.72297 64.4684 2.99313C64.0315 3.66871 63.5581 4.87625 63.0928 6.39596C62.6225 7.93175 62.1467 9.83381 61.7182 11.9331C60.8617 16.1296 60.1888 21.1425 60.134 25.6282C60.0668 31.1209 61.479 37.9758 62.8947 43.4283C63.6041 46.1608 64.3176 48.5527 64.8538 50.2617C65.0948 51.03 65.3001 51.6605 65.4532 52.1223C65.2224 52.0676 64.9493 52.0059 64.6356 51.9397C63.5187 51.7041 61.8862 51.4125 59.8124 51.1851C55.665 50.7302 49.7506 50.5319 42.6647 51.5527C39.3864 52.025 36.7563 50.3835 34.5455 47.8213C32.3286 45.2522 30.611 41.8438 29.1695 38.9701L29.1388 38.909L29.1387 38.9088C28.4369 37.5096 27.7944 36.2288 27.1976 35.2706C26.8946 34.7841 26.5908 34.36 26.283 34.0385C25.982 33.7242 25.6303 33.4583 25.2243 33.3771C24.7798 33.2881 24.3716 33.4383 24.0295 33.7499C23.7056 34.0448 23.4246 34.4953 23.1658 35.0717C22.6456 36.23 22.1389 38.0742 21.6103 40.7508C20.5264 46.2386 21.8871 51.7768 24.4884 56.9651C27.0898 62.1536 30.9494 67.0284 34.924 71.2146C38.9009 75.4032 43.0076 78.9179 46.1186 81.3846C47.6746 82.6184 48.9828 83.591 49.9028 84.2558C50.0979 84.3967 50.2755 84.5239 50.4344 84.6367L1.59687 96.2074L0.758484 96.406L1.3469 97.0354L1.71214 96.6939C1.3469 97.0354 1.34709 97.0356 1.34736 97.0359L1.34834 97.037L1.35186 97.0407L1.36509 97.0548L1.41614 97.1085C1.46102 97.1556 1.52751 97.2249 1.61502 97.3148C1.79004 97.4947 2.04916 97.7573 2.38766 98.0903C3.06462 98.7563 4.05929 99.7042 5.33392 100.836C7.88261 103.098 11.5536 106.098 16.0448 109.047C24.6098 114.672 36.2119 120.149 48.7259 119.917ZM50.5 119.693L50.6804 120.112C46.3473 121.98 44.7467 123.752 43.6351 125.549C43.3586 125.996 43.1057 126.461 42.8449 126.939C42.0514 128.396 41.1844 129.987 39.3544 131.646C35.2651 135.352 29.1542 139.122 24.1179 142.229L24.0393 142.277C23.7452 142.459 23.455 142.638 23.169 142.815C20.5545 144.43 18.314 145.836 16.874 146.941C16.1455 147.5 15.6693 147.947 15.4426 148.277C15.3588 148.399 15.3311 148.474 15.3222 148.509L15.3251 148.511C15.8567 148.891 16.9244 149.381 18.4161 149.914C19.892 150.442 21.7385 150.997 23.7922 151.516C27.9019 152.555 32.8139 153.445 37.2128 153.703C42.5559 154.016 49.3593 152.947 54.8567 151.788C57.5992 151.21 60.0049 150.612 61.7248 150.158C62.5846 149.932 63.2727 149.741 63.7454 149.607C63.8639 149.574 63.9688 149.544 64.0595 149.518C64.1497 149.492 64.2258 149.47 64.2872 149.452C64.3488 149.434 64.3955 149.421 64.4267 149.411L64.4617 149.401L64.4704 149.398L64.4724 149.398L64.4729 149.398L64.6161 149.877L64.473 149.398L65.4122 149.117L65.088 150.042L65.0879 150.042L65.0877 150.043L65.0863 150.047L65.0802 150.065L65.0631 150.116L65.0549 150.141C65.0324 150.209 64.9992 150.312 64.9571 150.449C64.873 150.724 64.7534 151.134 64.6137 151.672C64.3343 152.748 63.9745 154.333 63.6569 156.359C63.0218 160.411 62.5559 166.224 63.2387 173.254C63.606 177.034 61.5493 179.883 58.7582 182.075C55.9744 184.261 52.3711 185.866 49.4569 187.163L49.4319 187.174L49.4317 187.174L49.4308 187.174C47.9706 187.824 46.6965 188.391 45.7525 188.92C45.2781 189.186 44.9083 189.431 44.6481 189.658C44.3803 189.892 44.2784 190.064 44.2512 190.173C44.2336 190.244 44.232 190.34 44.3676 190.504C44.5191 190.686 44.8147 190.913 45.3299 191.174C46.355 191.692 48.0797 192.262 50.7185 192.912C55.8627 194.177 61.2227 193.148 66.4032 190.844C71.5835 188.54 76.5476 184.977 80.8721 181.235C85.1942 177.496 88.8614 173.593 91.4491 170.622C92.7424 169.138 93.765 167.888 94.4636 167.009C94.8128 166.57 95.0811 166.224 95.2616 165.989C95.3519 165.871 95.4202 165.78 95.4658 165.72L95.517 165.651L95.5296 165.635L95.5326 165.63L95.5333 165.63C95.5334 165.629 95.5334 165.629 95.5957 165.676L95.5335 165.629L96.2145 164.709L96.4267 165.834L105.771 215.386C105.826 215.336 105.884 215.283 105.946 215.227C106.022 215.157 106.104 215.082 106.189 215.002C106.875 214.367 107.855 213.429 109.031 212.222C111.384 209.807 114.517 206.315 117.636 202.013C123.865 193.421 129.998 181.653 129.827 168.794C129.647 168.418 129.466 168.019 129.286 167.597L130.205 167.204C132.061 171.542 133.828 173.148 135.623 174.264C136.069 174.542 136.532 174.796 137.01 175.058L137.011 175.058C138.465 175.856 140.054 176.727 141.707 178.562C145.402 182.662 149.155 188.783 152.248 193.828L152.291 193.899L152.318 193.943C152.491 194.225 152.662 194.504 152.831 194.779C154.439 197.398 155.839 199.642 156.94 201.085C157.496 201.815 157.942 202.293 158.271 202.52C158.393 202.604 158.468 202.632 158.503 202.641L158.505 202.638C158.886 202.108 159.38 201.042 159.917 199.551C160.449 198.077 161.009 196.232 161.534 194.18C162.584 190.073 163.488 185.164 163.758 180.765C164.086 175.423 163.036 168.617 161.893 163.116C161.322 160.372 160.731 157.965 160.282 156.243C160.058 155.383 159.87 154.694 159.737 154.221C159.671 153.985 159.619 153.802 159.583 153.679C159.566 153.618 159.552 153.571 159.543 153.54L159.533 153.504L159.53 153.496L159.53 153.494L159.529 153.493L160.009 153.351L159.529 153.493L159.252 152.553L160.176 152.88L160.176 152.88L160.176 152.88L160.18 152.882L160.198 152.888L160.249 152.905L160.274 152.913C160.342 152.936 160.445 152.97 160.582 153.012C160.857 153.097 161.267 153.218 161.804 153.359C162.879 153.641 164.463 154.006 166.488 154.329C170.538 154.975 176.351 155.457 183.382 154.794C187.164 154.438 190.006 156.502 192.19 159.299C194.369 162.089 195.964 165.697 197.252 168.615L197.263 168.64L197.264 168.64C197.909 170.103 198.473 171.379 199 172.324C199.264 172.799 199.508 173.17 199.734 173.431C199.967 173.699 200.139 173.801 200.248 173.829C200.319 173.847 200.415 173.849 200.579 173.713C200.762 173.563 200.99 173.268 201.252 172.753C201.773 171.729 202.348 170.006 203.005 167.369C204.285 162.229 203.27 156.866 200.981 151.679C198.691 146.492 195.142 141.518 191.413 137.183C187.686 132.851 183.793 129.173 180.83 126.577C179.349 125.279 178.101 124.253 177.225 123.552C176.787 123.202 176.442 122.932 176.206 122.751C176.089 122.661 175.999 122.592 175.938 122.546L175.87 122.495L175.853 122.482L175.849 122.479L175.848 122.478C175.848 122.478 175.848 122.478 175.88 122.435L175.848 122.478L174.93 121.795L176.055 121.586L225.633 112.38L225.531 112.267C225.446 112.173 225.352 112.071 225.251 111.961C224.617 111.273 223.682 110.29 222.478 109.111C220.069 106.751 216.587 103.609 212.293 100.478C203.695 94.2072 191.903 88.0248 179.002 88.195L178.989 87.1951C179.019 87.1947 179.05 87.1943 179.08 87.194L179.151 87.1933C179.213 87.1927 179.275 87.1923 179.337 87.192L179.266 87.0581C183.441 84.8476 184.763 83.0799 185.599 81.3378C185.8 80.9194 185.978 80.4869 186.162 80.0385L186.162 80.0383C186.755 78.5945 187.416 76.9868 189.136 75.1575C192.916 71.1365 198.707 66.8911 203.479 63.3922C203.783 63.1693 204.083 62.9494 204.378 62.7327C206.856 60.9138 208.977 59.3334 210.324 58.1173C211.006 57.502 211.445 57.0185 211.644 56.6717C211.718 56.5433 211.74 56.4664 211.746 56.4306L211.743 56.4287C211.183 56.0926 210.079 55.6889 208.55 55.2763C207.036 54.868 205.152 54.4627 203.063 54.1091C198.883 53.4015 193.916 52.9056 189.511 52.9999C184.16 53.1144 177.463 54.7226 172.076 56.3165C169.388 57.1116 167.038 57.8996 165.36 58.4888C164.521 58.7833 163.85 59.028 163.389 59.199C163.159 59.2844 162.982 59.3514 162.862 59.3969C162.802 59.4197 162.756 59.4371 162.726 59.4488L162.692 59.4619L162.683 59.4652L162.681 59.4659L162.681 59.4661L162.5 59L162.681 59.4661L161.734 59.8336L162.02 58.8592L162.02 58.8589L162.02 58.8587L162.021 58.8554L162.026 58.8395L162.039 58.793L162.045 58.771C162.061 58.7091 162.086 58.6147 162.117 58.4887C162.178 58.2367 162.265 57.8581 162.361 57.3587C162.553 56.3599 162.784 54.878 162.939 52.9598C163.248 49.1236 163.25 43.5419 162.008 36.5879C161.34 32.8508 163.161 29.7862 165.763 27.2878C168.298 24.8543 171.655 22.8778 174.418 21.2516L174.418 21.2515L174.621 21.1316C176.034 20.2997 177.268 19.5671 178.171 18.9045C178.622 18.5735 178.972 18.2733 179.215 18.0008C179.463 17.723 179.562 17.5153 179.584 17.3703C179.601 17.2567 179.58 17.132 179.429 16.9653C179.263 16.7809 178.951 16.5649 178.42 16.3347C177.361 15.8754 175.601 15.4299 172.92 14.9935C167.691 14.1423 162.43 15.5962 157.45 18.3064C152.47 21.0164 147.806 24.9639 143.794 29.0383C139.784 33.1104 136.44 37.2941 134.097 40.4614C132.927 42.0444 132.007 43.3723 131.381 44.3034C131.068 44.769 130.828 45.1353 130.667 45.3847C130.586 45.5094 130.525 45.6049 130.485 45.6689L130.439 45.7411L130.428 45.759L130.425 45.7633L130.424 45.7642C130.424 45.7644 130.424 45.7644 130 45.5C129.521 45.642 129.521 45.6419 129.52 45.6417L129.52 45.641L129.52 45.6387L129.517 45.6305L129.508 45.5996C129.5 45.5726 129.489 45.533 129.475 45.4812C129.446 45.3777 129.404 45.2258 129.352 45.03C129.249 44.6383 129.107 44.0706 128.949 43.3627C128.634 41.9473 128.255 39.9682 128.003 37.7118C127.5 33.2192 127.487 27.5441 129.545 23.0421C131.487 18.7941 131.5 13.3442 131.003 8.89935C130.756 6.68694 130.384 4.74421 130.074 3.35486C129.92 2.66049 129.781 2.10513 129.68 1.72434L129.659 1.64176C129.492 1.70003 129.285 1.77439 129.041 1.86571C128.324 2.13437 127.286 2.54974 126.013 3.13412C123.466 4.30312 119.98 6.14701 116.229 8.84347C108.729 14.2362 100.187 23.0288 95.9777 36.6477L95.8674 36.6136C95.8947 36.6689 95.9221 36.7248 95.9495 36.7811L95.0505 37.219C92.9831 32.9746 91.2054 31.5427 89.4317 30.5978C89.001 30.3683 88.5552 30.1621 88.0941 29.9489C86.6367 29.2751 85.0276 28.531 83.2664 26.7599C79.3748 22.8464 75.3264 16.9163 71.9899 12.029L71.9652 11.9928C71.761 11.6938 71.5596 11.3987 71.361 11.1083C69.6263 8.5712 68.1181 6.39813 66.948 5.01077C66.356 4.30892 65.8875 3.85385 65.5476 3.64269C65.4218 3.56455 65.3456 3.54036 65.3101 3.53313L65.3081 3.53616C64.9534 4.0847 64.5128 5.17394 64.049 6.68873C63.5901 8.18742 63.1217 10.0575 62.698 12.1331C61.8504 16.2865 61.1878 21.2343 61.1339 25.6404C61.0685 30.9923 62.4507 37.739 63.8626 43.177C64.5669 45.8897 65.2755 48.2652 65.8079 49.9624C66.0741 50.8108 66.2961 51.4893 66.4515 51.9553C66.5292 52.1883 66.5901 52.3681 66.6316 52.4894L66.6463 52.5323C66.66 52.5722 66.6709 52.6038 66.6789 52.6268L66.6908 52.6613L66.6938 52.6699L66.6945 52.6719L66.6947 52.6724L66.2227 52.8375L66.6947 52.6724L67.0183 53.5977L66.0794 53.3165L66.0793 53.3165L66.0787 53.3163L66.0747 53.3151L66.0565 53.3098L66.0049 53.2951L65.9795 53.2881C65.9103 53.2688 65.8057 53.2404 65.6666 53.2047C65.3885 53.1333 64.9729 53.0328 64.4292 52.9182C63.3417 52.6888 61.7418 52.4026 59.7034 52.1791C55.6264 51.732 49.7975 51.5354 42.8073 52.5425C39.0475 53.0842 36.1068 51.1614 33.7884 48.4746C31.476 45.7949 29.7059 42.2696 28.2757 39.4185L28.2634 39.394C27.5466 37.965 26.9211 36.7181 26.3488 35.7993C26.0613 35.3377 25.7997 34.9797 25.5608 34.7302C25.315 34.4736 25.1383 34.3797 25.028 34.3576C24.9561 34.3432 24.8599 34.3461 24.7028 34.4892C24.5275 34.6489 24.3145 34.9547 24.078 35.4814C23.6074 36.5293 23.1178 38.2786 22.5913 40.9446C21.5648 46.1418 22.8411 51.4484 25.3823 56.5169C27.9235 61.5851 31.712 66.3792 35.6492 70.5261C39.5842 74.6706 43.6531 78.1535 46.7399 80.601C48.2827 81.8244 49.5789 82.788 50.4885 83.4452C50.9433 83.7738 51.3013 84.0258 51.5452 84.1952C51.6671 84.2799 51.7605 84.344 51.8231 84.3868L51.8937 84.4348L51.9112 84.4466L51.9154 84.4494L51.9163 84.45C51.9165 84.4502 51.9165 84.4502 51.6379 84.8654L51.9165 84.4502L52.8672 85.088L51.7532 85.3519L2.68595 96.9771C2.80381 97.0954 2.9383 97.2293 3.08896 97.3775C3.75507 98.0328 4.73726 98.9688 5.9978 100.088C8.51945 102.326 12.152 105.294 16.5937 108.211C25.489 114.053 37.57 119.649 50.4472 118.847L50.5 119.693ZM130 45.5L130.424 45.7644L129.836 46.7078L129.521 45.642L130 45.5Z" fill="black"/>
</svg>
