<svg width="507" height="499" viewBox="0 0 507 499" fill="none" xmlns="http://www.w3.org/2000/svg">
<mask id="path-1-inside-1" fill="white">
<path fill-rule="evenodd" clip-rule="evenodd" d="M343.561 49.8953C347.957 49.3048 352.443 49 357 49C412.228 49 457 93.7715 457 149C457 153.695 456.677 158.314 456.051 162.836C486.463 179.987 507 212.595 507 250C507 286.921 486.991 319.169 457.225 336.491C457.737 340.589 458 344.764 458 349C458 404.228 413.228 449 358 449C353.305 449 348.686 448.677 344.164 448.051C327.013 478.463 294.405 499 257 499C219.595 499 186.987 478.463 169.836 448.051C165.314 448.677 160.695 449 156 449C100.772 449 56 404.228 56 349C56 345.973 56.1345 342.977 56.3978 340.019C23.015 323.819 0 289.597 0 250C0 210.328 23.1016 176.052 56.5861 159.89C56.1988 156.313 56 152.68 56 149C56 93.7715 100.772 49 156 49C160.878 49 165.674 49.3492 170.364 50.024C187.651 20.1207 219.976 0 257 0C293.971 0 326.256 20.063 343.561 49.8953Z"/>
</mask>
<path d="M343.561 49.8953L342.696 50.397L343.032 50.9754L343.694 50.8864L343.561 49.8953ZM456.051 162.836L455.06 162.699L454.967 163.373L455.559 163.707L456.051 162.836ZM457.225 336.491L456.722 335.627L456.151 335.959L456.233 336.615L457.225 336.491ZM344.164 448.051L344.301 447.06L343.627 446.967L343.293 447.559L344.164 448.051ZM169.836 448.051L170.707 447.559L170.373 446.967L169.699 447.06L169.836 448.051ZM56.3978 340.019L57.3939 340.108L57.455 339.42L56.8344 339.119L56.3978 340.019ZM56.5861 159.89L57.0208 160.79L57.6563 160.484L57.5803 159.782L56.5861 159.89ZM170.364 50.024L170.222 51.0138L170.892 51.1101L171.23 50.5245L170.364 50.024ZM357 48C352.398 48 347.868 48.3078 343.428 48.9042L343.694 50.8864C348.046 50.3019 352.487 50 357 50V48ZM458 149C458 93.2192 412.781 48 357 48V50C411.676 50 456 94.3238 456 149H458ZM457.041 162.973C457.673 158.405 458 153.741 458 149H456C456 153.649 455.68 158.222 455.06 162.699L457.041 162.973ZM508 250C508 212.22 487.256 179.286 456.542 161.965L455.559 163.707C485.671 180.688 506 212.971 506 250H508ZM457.728 337.355C487.789 319.861 508 287.292 508 250H506C506 286.551 486.193 318.476 456.722 335.627L457.728 337.355ZM459 349C459 344.722 458.734 340.506 458.218 336.367L456.233 336.615C456.739 340.672 457 344.805 457 349H459ZM358 450C413.781 450 459 404.781 459 349H457C457 403.676 412.676 448 358 448V450ZM344.027 449.041C348.595 449.673 353.259 450 358 450V448C353.351 448 348.778 447.68 344.301 447.06L344.027 449.041ZM257 500C294.78 500 327.714 479.256 345.035 448.542L343.293 447.559C326.312 477.671 294.029 498 257 498V500ZM168.965 448.542C186.286 479.256 219.22 500 257 500V498C219.971 498 187.688 477.671 170.707 447.559L168.965 448.542ZM169.699 447.06C165.222 447.68 160.649 448 156 448V450C160.741 450 165.405 449.673 169.973 449.041L169.699 447.06ZM156 448C101.324 448 57 403.676 57 349H55C55 404.781 100.219 450 156 450V448ZM57 349C57 346.003 57.1332 343.037 57.3939 340.108L55.4018 339.93C55.1358 342.918 55 345.943 55 349H57ZM-1 250C-1 289.995 22.247 324.558 55.9612 340.919L56.8344 339.119C23.783 323.081 1 289.2 1 250H-1ZM56.1514 158.989C22.3344 175.312 -1 209.93 -1 250H1C1 210.726 23.8687 176.792 57.0208 160.79L56.1514 158.989ZM55 149C55 152.716 55.2007 156.385 55.5919 159.998L57.5803 159.782C57.1968 156.241 57 152.644 57 149H55ZM156 48C100.219 48 55 93.2192 55 149H57C57 94.3238 101.324 50 156 50V48ZM170.507 49.0342C165.769 48.3526 160.925 48 156 48V50C160.83 50 165.578 50.3458 170.222 51.0138L170.507 49.0342ZM257 -1C219.604 -1 186.957 19.3238 169.499 49.5235L171.23 50.5245C188.346 20.9176 220.347 1 257 1V-1ZM344.426 49.3935C326.949 19.2655 294.342 -1 257 -1V1C293.6 1 325.562 20.8605 342.696 50.397L344.426 49.3935Z" fill="black" mask="url(#path-1-inside-1)"/>
</svg>
