<svg width="507" height="499" viewBox="0 0 507 499" fill="none" xmlns="http://www.w3.org/2000/svg">
<path fill-rule="nonzero" clip-rule="evenodd" d="M343.032 50.9754L342.696 50.397C325.562 20.8605 293.6 1 257 1C220.347 1 188.346 20.9176 171.23 50.5245L170.892 51.1101L170.222 51.0138C165.578 50.3458 160.83 50 156 50C101.324 50 57 94.3238 57 149C57 152.644 57.1968 156.241 57.5803 159.782L57.6563 160.484L57.0208 160.79C23.8687 176.792 1 210.726 1 250C1 289.2 23.783 323.081 56.8344 339.119L57.455 339.42L57.3939 340.108C57.1332 343.037 57 346.003 57 349C57 403.676 101.324 448 156 448C160.649 448 165.222 447.68 169.699 447.06L170.373 446.967L170.707 447.559C187.688 477.671 219.971 498 257 498C294.029 498 326.312 477.671 343.293 447.559L343.627 446.967L344.301 447.06C348.778 447.68 353.351 448 358 448C412.676 448 457 403.676 457 349C457 344.805 456.739 340.672 456.233 336.615L456.151 335.959L456.722 335.627C486.193 318.476 506 286.551 506 250C506 212.971 485.671 180.688 455.559 163.707L454.967 163.373L455.06 162.699C455.68 158.222 456 153.649 456 149C456 94.3238 411.676 50 357 50C352.487 50 348.046 50.3019 343.694 50.8864L343.032 50.9754ZM456.051 162.836C456.677 158.314 457 153.695 457 149C457 93.7715 412.228 49 357 49C352.443 49 347.957 49.3048 343.561 49.8953C326.256 20.063 293.971 0 257 0C219.976 0 187.651 20.1207 170.364 50.024C165.674 49.3492 160.878 49 156 49C100.772 49 56 93.7715 56 149C56 152.68 56.1988 156.313 56.5861 159.89C23.1016 176.052 0 210.328 0 250C0 289.597 23.015 323.819 56.3978 340.019C56.1345 342.977 56 345.973 56 349C56 404.228 100.772 449 156 449C160.695 449 165.314 448.677 169.836 448.051C186.987 478.463 219.595 499 257 499C294.405 499 327.013 478.463 344.164 448.051C348.686 448.677 353.305 449 358 449C413.228 449 458 404.228 458 349C458 344.764 457.737 340.589 457.225 336.491C486.991 319.169 507 286.921 507 250C507 212.595 486.463 179.987 456.051 162.836Z" />
</svg>
