<?xml version="1.0" encoding="utf-8"?>
<!-- Generator: Adobe Illustrator 16.0.0, SVG Export Plug-In . SVG Version: 6.00 Build 0)  -->
<!DOCTYPE svg PUBLIC "-//W3C//DTD SVG 1.1//EN" "http://www.w3.org/Graphics/SVG/1.1/DTD/svg11.dtd">
<svg version="1.1" id="Layer_1" xmlns="http://www.w3.org/2000/svg" xmlns:xlink="http://www.w3.org/1999/xlink" x="0px" y="0px"
	 width="459px" height="472px" viewBox="0 0 459 472" enable-background="new 0 0 459 472" xml:space="preserve">
<defs>
	<path id="SVGID_1_" d="M332,10.5c-135.5-26.5-176.5,39-176.5,39s-67.503,0.546-99,25c-43.312,33.626-24,54.5-45,105s11.567,38,0,88
		c-11.566,50,31.052,57.432,45,85.5c16.562,33.326,6.5,26,9.5,51.5S141.5,480,256.5,465C371.499,450,357,367,357,367
		s67.024-18.037,88-52c25.793-41.765-7-125.5-7-125.5S467.5,37,332,10.5z"/>
</defs>
<clipPath id="SVGID_2_">
	<use xlink:href="#SVGID_1_"  overflow="visible"/>
</clipPath>
</svg>
