<svg width="830" height="655" viewBox="0 0 830 655" fill="none" xmlns="http://www.w3.org/2000/svg">
<path d="M312.5 66.5001C312.5 66.5001 375.715 7.39015 426 5.50007C480.104 3.46644 550.5 66.5001 550.5 66.5001C550.5 66.5001 704.062 30.7868 730.5 97.0001C748.641 142.433 700 218.5 700 218.5C700 218.5 829.953 274.457 824.5 343C818.796 414.703 669.5 442.5 669.5 442.5C669.5 442.5 663 590 578 594.5C493 599 526 645.5 445.5 650C365 654.5 301.139 563.753 213 594.5C188.837 602.929 179.871 618.971 155 625C92.9767 640.035 9.05485 622.721 5.49992 559C4.17471 535.246 11.7274 521.712 22.4999 500.5C42.5201 461.079 103.919 467.686 105.5 423.5C106.375 399.039 82.9999 365 82.9999 365C82.9999 365 5.49988 304.5 5.49992 218.5C5.49996 132.5 32.9068 122.653 82.9999 97.0001C128.187 73.8595 175.5 127.5 213 97.0001C250.5 66.5001 312.5 66.5001 312.5 66.5001Z" stroke="black" stroke-width="9"/>
</svg>
