<svg width="76" height="80" viewBox="0 0 76 80" fill="none" xmlns="http://www.w3.org/2000/svg">
<path fill-rule="evenodd" clip-rule="evenodd" d="M40.6004 66.8662C36.7988 66.4954 33.2953 66.437 29.9447 65.7765C15.1136 62.8582 5.23564 54.9789 1.46883 42.0312C-2.41149 28.6954 1.33566 16.872 13.4336 7.86581C25.8116 -1.3503 39.9497 -1.76494 54.6704 3.00059C61.5896 5.24117 68.4891 7.51895 76 9.97746C65.5138 19.2042 53.6806 27.9977 36.366 27.5711C27.6489 27.3558 24.495 25.0834 21.9086 18.6195C15.4753 24.9345 13.9467 31.8224 16.3969 39.5687C18.8183 47.2233 24.8264 51.2818 33.3392 52.8447C36.4174 48.1217 38.2895 42.297 42.6722 39.3587C47.0535 36.4205 53.9455 36.3673 61.6471 34.6145C58.1194 40.7023 55.3044 45.5622 52.1278 51.0427C56.1201 50.842 58.9335 50.6985 63.9549 50.446C54.752 61.205 46.7145 70.6031 38.6754 80C38.0186 79.7807 37.3633 79.5601 36.7064 79.3408C37.9792 75.2624 39.2504 71.1878 40.6004 66.8662Z" fill="#0B661F"/>
</svg>
