<?xml version="1.0" encoding="utf-8"?>
<svg id="master-artboard" viewBox="0 0 336 235.2" version="1.1" xmlns="http://www.w3.org/2000/svg" x="0px" y="0px" style="enable-background:new 0 0 336 235.2;" width="336px" height="235.1999969482422px"><rect id="ee-background" x="0" y="0" width="336" height="235.1999969482422" style="fill: white; fill-opacity: 0; pointer-events: none;"/>

<path d="M 0 0 H 336 V 235.199997 H 0 V 0 Z" class="st0" style="fill: rgb(245, 158, 33); fill-opacity: 0;" transform="matrix(1, 0, 0, 1, 0, 0)"/>
<path d="M 232.699997 117.599998 A 90.699997 90.699997 0 0 1 142 208.299995 A 90.699997 90.699997 0 0 1 51.300003 117.599998 A 90.699997 90.699997 0 0 1 142 26.900002 A 90.699997 90.699997 0 0 1 232.699997 117.599998 Z" class="st2" style="fill: rgb(253, 250, 252); opacity: 0.3;" transform="matrix(1, 0, 0, 1, 0, 0)"/>
<path class="st3" d="M67.6,173.5L55,178.5l13.9,27.7c0,0,2.9,4.9,10.5,2.3c7.6-2.6,6.9-8.2,6.9-8.2l-5.8-30.5L67.6,173.5z" style="fill: rgb(0, 0, 0);" transform="matrix(1, 0, 0, 1, 0, 0)"/>
<path d="M 221.1 185.399994 A 15.6 15.6 0 0 1 205.5 200.999994 A 15.6 15.6 0 0 1 189.9 185.399994 A 15.6 15.6 0 0 1 205.5 169.799994 A 15.6 15.6 0 0 1 221.1 185.399994 Z" class="st4" style="fill: rgb(0, 0, 0);" transform="matrix(1, 0, 0, 1, 0, 0)"/>
<g transform="matrix(1, 0, 0, 1, 0, 0)" style="opacity: 0.1;">
		<path class="st4" d="M151.6,134.6c-2-5.9-8.4-9-14.3-7.1l0,0l-11.2-33.2l-4.6,1.6c0,0-7.8,31.9-57.5,46.3c-0.1,0-0.3,0.1-0.4,0.1&#10;&#9;&#9;&#9;c0,0-33.4,6-25.2,30.2c4.3,12.7,14.6,14.5,23.5,13.3l12.9,25.7c0,0,2.9,4.9,10.5,2.3c7.6-2.6,6.9-8.2,6.9-8.2L87,177.7&#10;&#9;&#9;&#9;c41.9-12.5,64,5.3,64,5.3l0.7,2.2l4.6-1.6l-11.8-34.8C150.5,146.9,153.6,140.5,151.6,134.6z" style="fill: rgb(25, 76, 116);" transform="matrix(0.255097961515217, 0, 0, 0.255097961515217, 116.42819790926927, 115.97421628241906)"/>
	<path d="M 71.11351776123047 217.0811004638672" style="fill: rgb(25, 76, 116); fill-opacity: 1; stroke: rgb(0, 0, 0); stroke-opacity: 1; stroke-width: 0; paint-order: fill;" transform="matrix(0.255097961515217, 0, 0, 0.255097961515217, 116.42819790926927, 115.97421628241906)"/><path d="M 73.4378433227539 190.58380126953125 L 73.4378433227539 190.58380126953125" style="fill: rgb(25, 76, 116); fill-opacity: 1; stroke: rgb(0, 0, 0); stroke-opacity: 1; stroke-width: 0; paint-order: fill;" transform="matrix(0.255097961515217, 0, 0, 0.255097961515217, 116.42819790926927, 115.97421628241906)"/></g><path class="st4" d="M193.2,80c-13.8,9.8-27.5,19.6-41.3,29.4c-2.1,1.5-0.1,5,2,3.5c13.8-9.8,27.5-19.6,41.3-29.4&#10;&#9;&#9;&#9;C197.4,82,195.4,78.5,193.2,80z" style="fill: rgb(25, 76, 116); opacity: 0.1;" transform="matrix(1, 0, 0, 1, 0, 0)"/><path class="st4" d="M224.4,106.5c-20.6,6.1-41.1,12.2-61.7,18.2c-2.5,0.7-1.4,4.6,1.1,3.9c20.6-6.1,41.1-12.2,61.7-18.2&#10;&#9;&#9;&#9;C228,109.7,226.9,105.8,224.4,106.5z" style="fill: rgb(25, 76, 116); opacity: 0.1;" transform="matrix(1, 0, 0, 1, 0, 0)"/><path class="st4" d="M210.8,148.5c-15.2-1.4-30.5-2.9-45.7-4.3c-2.6-0.2-2.6,3.8,0,4c15.2,1.4,30.5,2.9,45.7,4.3&#10;&#9;&#9;&#9;C213.4,152.8,213.4,148.7,210.8,148.5z" style="fill: rgb(25, 76, 116); opacity: 0.1;" transform="matrix(1, 0, 0, 1, 0, 0)"/>
<path d="M 199.699997 173.699997 L 188.5 172.899994 L 191.800003 183.5" class="st4" style="fill: rgb(0, 0, 0);" transform="matrix(1, 0, 0, 1, 0, 0)"/>
<path d="M 165.999994 61.400002 A 15.6 15.6 0 0 1 150.399994 77.000002 A 15.6 15.6 0 0 1 134.799994 61.400002 A 15.6 15.6 0 0 1 150.399994 45.800001 A 15.6 15.6 0 0 1 165.999994 61.400002 Z" class="st4" style="fill: rgb(0, 0, 0);" transform="matrix(1, 0, 0, 1, 0, 0)"/>
<path d="M 139.399994 68.400002 L 139.899994 79.599998 L 150.100006 75.099998" class="st4" style="fill: rgb(0, 0, 0);" transform="matrix(1, 0, 0, 1, 0, 0)"/>
<path d="M 317.100012 109.699997 A 14.4 14.4 0 0 1 302.700012 124.099997 A 14.4 14.4 0 0 1 288.300013 109.699997 A 14.4 14.4 0 0 1 302.700012 95.299997 A 14.4 14.4 0 0 1 317.100012 109.699997 Z" class="st6" style="fill: rgb(49, 132, 198);" transform="matrix(1, 0, 0, 1, 0, 0)"/>
<path d="M 263.299994 36.5 A 8.4 8.4 0 0 1 254.899994 44.9 A 8.4 8.4 0 0 1 246.499994 36.5 A 8.4 8.4 0 0 1 254.899994 28.1 A 8.4 8.4 0 0 1 263.299994 36.5 Z" class="st4" style="fill: rgb(25, 76, 116);" transform="matrix(1, 0, 0, 1, 0, 0)"/>

<path d="M 263.9 180.5 A 8.4 8.4 0 0 1 255.5 188.9 A 8.4 8.4 0 0 1 247.1 180.5 A 8.4 8.4 0 0 1 255.5 172.1 A 8.4 8.4 0 0 1 263.9 180.5 Z" class="st6" style="fill: rgb(49, 132, 198);" transform="matrix(1, 0, 0, 1, 0, 0)"/>
<path d="M 165.900006 195.600006 A 3.8 3.8 0 0 1 162.100006 199.400006 A 3.8 3.8 0 0 1 158.300006 195.600006 A 3.8 3.8 0 0 1 162.100006 191.800006 A 3.8 3.8 0 0 1 165.900006 195.600006 Z" class="st4" style="fill: rgb(25, 76, 116);" transform="matrix(1, 0, 0, 1, 0, 0)"/>
<path d="M 209.3 94.699997 A 3.8 3.8 0 0 1 205.5 98.499997 A 3.8 3.8 0 0 1 201.7 94.699997 A 3.8 3.8 0 0 1 205.5 90.899997 A 3.8 3.8 0 0 1 209.3 94.699997 Z" class="st6" style="fill: rgb(169, 169, 169);" transform="matrix(1, 0, 0, 1, 0, 0)"/>
<path d="M 145.8 25.1 A 3.8 3.8 0 0 1 142 28.9 A 3.8 3.8 0 0 1 138.2 25.1 A 3.8 3.8 0 0 1 142 21.3 A 3.8 3.8 0 0 1 145.8 25.1 Z" class="st4" style="fill: rgb(25, 76, 116);" transform="matrix(1, 0, 0, 1, 0, 0)"/>
<path d="M 271.699994 25.1 A 3.8 3.8 0 0 1 267.899994 28.9 A 3.8 3.8 0 0 1 264.099994 25.1 A 3.8 3.8 0 0 1 267.899994 21.3 A 3.8 3.8 0 0 1 271.699994 25.1 Z" class="st4" style="fill: rgb(25, 76, 116);" transform="matrix(1, 0, 0, 1, 0, 0)"/>
<path d="M 261.3 132.899994 A 3.8 3.8 0 0 1 257.5 136.699994 A 3.8 3.8 0 0 1 253.7 132.899994 A 3.8 3.8 0 0 1 257.5 129.099994 A 3.8 3.8 0 0 1 261.3 132.899994 Z" class="st4" style="fill: rgb(25, 76, 116);" transform="matrix(1, 0, 0, 1, 0, 0)"/>
<path d="M 243.499997 191.199997 A 3.8 3.8 0 0 1 239.699997 194.999997 A 3.8 3.8 0 0 1 235.899997 191.199997 A 3.8 3.8 0 0 1 239.699997 187.399997 A 3.8 3.8 0 0 1 243.499997 191.199997 Z" class="st4" style="fill: rgb(25, 76, 116);" transform="matrix(1, 0, 0, 1, 0, 0)"/>
<path d="M 290.600006 110 L 285.700012 119.099998 L 295.799988 120.400002" class="st6" style="fill: rgb(49, 132, 198);" transform="matrix(1, 0, 0, 1, 0, 0)"/>
<g transform="matrix(1, 0, 0, 1, 0, 0)">
		<path d="M 150 109.199997 L 191.300003 79.800003" class="st7" style="fill: rgb(255, 255, 255);"/>
	</g><g transform="matrix(1, 0, 0, 1, 0, 0)">
			<path class="st8" d="M151.1,110.9c13.8-9.8,27.5-19.6,41.3-29.4c2.1-1.5,0.1-5-2-3.5c-13.8,9.8-27.5,19.6-41.3,29.4&#10;&#9;&#9;&#9;&#9;C146.9,109,148.9,112.5,151.1,110.9L151.1,110.9z" style="fill: rgb(0, 0, 0);"/>
		</g>
<g transform="matrix(1, 0, 0, 1, 0, 0)">
		<path d="M 159.300003 124.400002 L 221 106.099998" class="st7" style="fill: rgb(255, 255, 255);"/>
	</g><g transform="matrix(1, 0, 0, 1, 0, 0)">
			<path class="st8" d="M159.8,126.3c20.6-6.1,41.1-12.2,61.7-18.2c2.5-0.7,1.4-4.6-1.1-3.9c-20.6,6.1-41.1,12.2-61.7,18.2&#10;&#9;&#9;&#9;&#9;C156.3,123.1,157.3,127.1,159.8,126.3L159.8,126.3z" style="fill: rgb(0, 0, 0);"/>
		</g>
<g transform="matrix(1, 0, 0, 1, 0, 0)">
		<path d="M 162.100006 142.399994 L 207.899994 146.699997" class="st7" style="fill: rgb(255, 255, 255);"/>
	</g><g transform="matrix(1, 0, 0, 1, 0, 0)">
			<path class="st8" d="M162.1,144.4c15.2,1.5,30.5,2.9,45.7,4.3c2.6,0.2,2.6-3.8,0-4c-15.2-1.5-30.5-2.9-45.7-4.3&#10;&#9;&#9;&#9;&#9;C159.5,140.1,159.6,144.2,162.1,144.4L162.1,144.4z" style="fill: rgb(0, 0, 0);"/>
		</g>

<path class="st3" d="M243.5,146.5l-5-4.6c0.6-1.1,0.9-2.4,0.9-3.8c0-4.7-3.8-8.4-8.4-8.4c-4.7,0-8.4,3.8-8.4,8.4&#10;&#9;&#9;c0,4.7,3.8,8.4,8.4,8.4c1.4,0,2.7-0.3,3.8-0.9l4.6,5c0.4,0.5,1.2,0.5,1.7,0l2.5-2.5C244,147.7,244,147,243.5,146.5z M230.9,143.2&#10;&#9;&#9;c-2.8,0-5.2-2.3-5.2-5.2c0-2.8,2.3-5.1,5.2-5.1c2.8,0,5.1,2.3,5.1,5.1C236.1,140.9,233.8,143.2,230.9,143.2z" style="fill: rgb(194, 57, 68);" transform="matrix(1, 0, 0, 1, 0, 0)"/>
<g transform="matrix(1, 0, 0, 1, 0, 0)">
		<path class="st7" d="M150.4,52.5c-4.9,0-8.9,4-8.9,8.9c0,4.9,4,8.9,8.9,8.9c4.9,0,8.9-4,8.9-8.9C159.3,56.5,155.3,52.5,150.4,52.5&#10;&#9;&#9;&#9;z M150.4,67.2c-3.2,0-5.9-2.6-5.9-5.9c0-3.2,2.6-5.9,5.9-5.9c3.2,0,5.9,2.6,5.9,5.9C156.2,64.6,153.6,67.2,150.4,67.2z" style="fill: rgb(255, 255, 255);"/>
	</g><path class="st7" d="M151.7,60.5v-3.1c0-0.6-0.5-1-1-1h-0.5c-0.6,0-1,0.5-1,1v3.7c0,0.4,0.2,0.7,0.5,0.9c0,0,0,0.1,0.1,0.1&#10;&#9;&#9;&#9;l2.7,2.6c0.4,0.4,1.1,0.4,1.5,0l0.3-0.3c0.4-0.4,0.4-1.1,0-1.5L151.7,60.5z" style="fill: rgb(255, 255, 255);" transform="matrix(1, 0, 0, 1, 0, 0)"/>
<g transform="matrix(1, 0, 0, 1, 0, 0)">
		<path class="st3" d="M279.3,146.7c0.1,1.2,1,2.2,2,2.2h1c1,0,1.9-1,2-2.2l0.3-3.1c0.1-1.2-0.5-2.5-1.3-2.9c-0.8-0.4-2.2-0.4-3,0&#10;&#9;&#9;&#9;c-0.8,0.4-1.4,1.7-1.3,2.9L279.3,146.7z M292.9,151.8l-1.8-2.2c-0.5-0.6-1.5-1.2-2.3-1.2h-2.2c-0.7,0-1.8,0.5-2.3,1.2l-0.3,0.3&#10;&#9;&#9;&#9;c1.1,0.3,2.2,1,2.9,1.8l1,1.2h4.5C293.2,152.9,293.4,152.4,292.9,151.8z M286.3,145.7c0.1,0.9,0.7,1.6,1.5,1.6h0.7&#10;&#9;&#9;&#9;c0.7,0,1.4-0.7,1.5-1.6l0.2-2.3c0.1-0.9-0.3-1.8-0.9-2.1c-0.6-0.3-1.6-0.3-2.2,0c-0.6,0.3-1,1.3-1,2.1L286.3,145.7z M273.4,145.7&#10;&#9;&#9;&#9;c0.1,0.9,0.7,1.6,1.5,1.6h0.7c0.7,0,1.4-0.7,1.5-1.6l0.2-2.3c0.1-0.9-0.3-1.8-0.9-2.1c-0.6-0.3-1.6-0.3-2.2,0&#10;&#9;&#9;&#9;c-0.6,0.3-1,1.3-1,2.1L273.4,145.7z M275.7,151.7c0.7-0.8,1.8-1.5,2.9-1.8l-0.3-0.3c-0.5-0.6-1.5-1.2-2.3-1.2h-2.2&#10;&#9;&#9;&#9;c-0.7,0-1.8,0.5-2.3,1.2l-1.8,2.2c-0.5,0.6-0.3,1.2,0.4,1.2h4.5L275.7,151.7z M286,152c-0.7-0.9-2.1-1.6-3.1-1.6h-3&#10;&#9;&#9;&#9;c-1,0-2.4,0.7-3.1,1.6l-2.4,3.1c-0.7,0.9-0.4,1.6,0.6,1.6h13c1,0,1.3-0.7,0.6-1.6L286,152z" style="fill: rgb(0, 0, 0);"/>
	</g>
<g transform="matrix(1, 0, 0, 1, 0, 0)">
		<path d="M 301.300006 114.800003 A 1.2 1.2 0 0 1 300.100006 116.000003 A 1.2 1.2 0 0 1 298.900006 114.800003 A 1.2 1.2 0 0 1 300.100006 113.600003 A 1.2 1.2 0 0 1 301.300006 114.800003 Z" class="st7" style="fill: rgb(255, 255, 255);"/>
	</g><path d="M 307.7 114.800003 A 1.2 1.2 0 0 1 306.5 116.000003 A 1.2 1.2 0 0 1 305.3 114.800003 A 1.2 1.2 0 0 1 306.5 113.600003 A 1.2 1.2 0 0 1 307.7 114.800003 Z" class="st7" style="fill: rgb(255, 255, 255);" transform="matrix(1, 0, 0, 1, 0, 0)"/><path class="st7" d="M310.4,106.3H297l-0.9-1.4h-1.3H294h-0.9c-0.4,0-0.7,0.3-0.7,0.7v0.2c0,0.4,0.3,0.7,0.7,0.7h0.9h0.2h0.4&#10;&#9;&#9;&#9;c0.1,0,0.3,0,0.5,0c0,0.1,0,0.2,0,0.3l3.4,5.7c0.1,0.2,0.4,0.4,0.7,0.4h8.1c0.3,0,0.5-0.2,0.7-0.4l2.7-5.7&#10;&#9;&#9;&#9;C310.8,106.4,310.7,106.3,310.4,106.3z M305.9,107.8c0-0.2,0.2-0.5,0.5-0.5h0.2c0.3,0,0.5,0.2,0.5,0.5v0.1c0,0.3-0.2,0.5-0.5,0.5&#10;&#9;&#9;&#9;h-0.2c-0.3,0-0.5-0.2-0.5-0.5V107.8z M304.2,107.8c0-0.2,0.2-0.5,0.5-0.5h0.2c0.3,0,0.5,0.2,0.5,0.5v0.1c0,0.3-0.2,0.5-0.5,0.5&#10;&#9;&#9;&#9;h-0.2c-0.3,0-0.5-0.2-0.5-0.5V107.8z M302.6,107.8c0-0.2,0.2-0.5,0.5-0.5h0.2c0.3,0,0.5,0.2,0.5,0.5v0.1c0,0.3-0.2,0.5-0.5,0.5&#10;&#9;&#9;&#9;H303c-0.3,0-0.5-0.2-0.5-0.5V107.8z M300.9,107.8c0-0.2,0.2-0.5,0.5-0.5h0.2c0.2,0,0.5,0.2,0.5,0.5v0.1c0,0.3-0.2,0.5-0.5,0.5&#10;&#9;&#9;&#9;h-0.2c-0.3,0-0.5-0.2-0.5-0.5V107.8z M299.2,107.8c0-0.2,0.2-0.5,0.5-0.5h0.2c0.2,0,0.5,0.2,0.5,0.5v0.1c0,0.3-0.2,0.5-0.5,0.5&#10;&#9;&#9;&#9;h-0.2c-0.2,0-0.5-0.2-0.5-0.5V107.8z M298,108.4c-0.3,0-0.5-0.2-0.5-0.5v-0.1c0-0.2,0.2-0.5,0.5-0.5h0.2c0.3,0,0.5,0.2,0.5,0.5&#10;&#9;&#9;&#9;v0.1c0,0.3-0.2,0.5-0.5,0.5H298z M299.1,110h-0.2c-0.3,0-0.5-0.2-0.5-0.5v-0.1c0-0.3,0.2-0.5,0.5-0.5h0.2c0.3,0,0.5,0.2,0.5,0.5&#10;&#9;&#9;&#9;v0.1C299.5,109.8,299.3,110,299.1,110z M300.3,111.2c0,0.3-0.2,0.5-0.5,0.5h-0.2c-0.2,0-0.5-0.2-0.5-0.5v-0.1&#10;&#9;&#9;&#9;c0-0.3,0.2-0.5,0.5-0.5h0.2c0.2,0,0.5,0.2,0.5,0.5V111.2z M300.5,110c-0.3,0-0.5-0.2-0.5-0.5v-0.1c0-0.3,0.2-0.5,0.5-0.5h0.2&#10;&#9;&#9;&#9;c0.3,0,0.5,0.2,0.5,0.5v0.1c0,0.3-0.2,0.5-0.5,0.5H300.5z M302,111.2c0,0.3-0.2,0.5-0.5,0.5h-0.2c-0.3,0-0.5-0.2-0.5-0.5v-0.1&#10;&#9;&#9;&#9;c0-0.3,0.2-0.5,0.5-0.5h0.2c0.2,0,0.5,0.2,0.5,0.5V111.2z M302.2,110c-0.3,0-0.5-0.2-0.5-0.5v-0.1c0-0.3,0.2-0.5,0.5-0.5h0.2&#10;&#9;&#9;&#9;c0.3,0,0.5,0.2,0.5,0.5v0.1c0,0.3-0.2,0.5-0.5,0.5H302.2z M303.7,111.2c0,0.3-0.2,0.5-0.5,0.5H303c-0.3,0-0.5-0.2-0.5-0.5v-0.1&#10;&#9;&#9;&#9;c0-0.3,0.2-0.5,0.5-0.5h0.2c0.3,0,0.5,0.2,0.5,0.5V111.2z M303.9,110c-0.3,0-0.5-0.2-0.5-0.5v-0.1c0-0.3,0.2-0.5,0.5-0.5h0.2&#10;&#9;&#9;&#9;c0.3,0,0.5,0.2,0.5,0.5v0.1c0,0.3-0.2,0.5-0.5,0.5H303.9z M305.3,111.2c0,0.3-0.2,0.5-0.5,0.5h-0.2c-0.3,0-0.5-0.2-0.5-0.5v-0.1&#10;&#9;&#9;&#9;c0-0.3,0.2-0.5,0.5-0.5h0.2c0.3,0,0.5,0.2,0.5,0.5V111.2z M305.5,110c-0.3,0-0.5-0.2-0.5-0.5v-0.1c0-0.3,0.2-0.5,0.5-0.5h0.2&#10;&#9;&#9;&#9;c0.3,0,0.5,0.2,0.5,0.5v0.1c0,0.3-0.2,0.5-0.5,0.5H305.5z M307,111.2c0,0.3-0.2,0.5-0.5,0.5h-0.2c-0.3,0-0.5-0.2-0.5-0.5v-0.1&#10;&#9;&#9;&#9;c0-0.3,0.2-0.5,0.5-0.5h0.2c0.3,0,0.5,0.2,0.5,0.5V111.2z M307.8,109.5c0,0.3-0.2,0.5-0.5,0.5h-0.2c-0.3,0-0.5-0.2-0.5-0.5v-0.1&#10;&#9;&#9;&#9;c0-0.3,0.2-0.5,0.5-0.5h0.2c0.3,0,0.5,0.2,0.5,0.5V109.5z M308.6,107.9c0,0.3-0.2,0.5-0.5,0.5H308c-0.3,0-0.5-0.2-0.5-0.5v-0.1&#10;&#9;&#9;&#9;c0-0.2,0.2-0.5,0.5-0.5h0.2c0.2,0,0.5,0.2,0.5,0.5V107.9z" style="fill: rgb(255, 255, 255);" transform="matrix(1, 0, 0, 1, 0, 0)"/>
<path class="st3" d="M238.6,46.8c0-0.4-0.3-0.8-0.8-0.8h-10.2c-0.4,0-0.8,0.3-0.8,0.8v2.2v1.1v9.4c-0.4-0.1-0.8-0.2-1.3-0.2&#10;&#9;&#9;c-1.7,0-3.1,0.9-3.1,2.1c0,1.2,1.4,2.1,3.1,2.1c1.6,0,2.9-0.8,3-1.9h0V50.9h8.2v7.2c-0.4-0.1-0.8-0.2-1.3-0.2&#10;&#9;&#9;c-1.7,0-3.1,0.9-3.1,2.1c0,1.1,1.4,2.1,3.1,2.1c1.7,0,3.1-0.9,3.1-2.1c0,0,0,0,0,0h0v-9.8c0,0,0,0,0,0V46.8z" style="fill: rgb(194, 57, 68);" transform="matrix(1, 0, 0, 1, 0, 0)"/>
<path class="st7" d="M252.2,40.3c0,0.8,0.5,1,1.2,0.7l6.1-3.7c0.6-0.4,0.6-1,0-1.4l-6.1-3.7c-0.6-0.4-1.2-0.1-1.2,0.7V40.3z" style="fill: rgb(255, 255, 255);" transform="matrix(1, 0, 0, 1, 0, 0)"/>
<path class="st7" d="M260.1,182.8l-2.3-2.3l2.3-2.3c0.2-0.2,0.2-0.6,0-0.9l-1.3-1.3c-0.2-0.2-0.6-0.2-0.9,0l-2.3,2.3l-2.3-2.3&#10;&#9;&#9;c-0.2-0.2-0.6-0.2-0.9,0l-1.3,1.3c-0.2,0.2-0.2,0.6,0,0.9l2.3,2.3l-2.3,2.3c-0.2,0.2-0.2,0.6,0,0.9l1.3,1.3c0.2,0.2,0.6,0.2,0.9,0&#10;&#9;&#9;l2.3-2.3l2.3,2.3c0.2,0.2,0.6,0.2,0.9,0l1.3-1.3C260.3,183.4,260.3,183,260.1,182.8z" style="fill: rgb(255, 255, 255);" transform="matrix(1, 0, 0, 1, 0, 0)"/>
<path class="st7" d="M181.9,22.4l-1.7-1.4c-0.2-0.1-0.5-0.1-0.6,0.1l-4.8,5.9l-1.9-1.7c-0.2-0.2-0.4-0.1-0.6,0l-1.5,1.7&#10;&#9;&#9;c-0.2,0.2-0.1,0.4,0,0.6l4,3.6c0.2,0.2,0.4,0.1,0.6,0l1.4-1.8c0,0,0,0,0,0l5.2-6.4C182.1,22.9,182.1,22.6,181.9,22.4z" style="fill: rgb(255, 255, 255);" transform="matrix(1, 0, 0, 1, 0, 0)"/>
<path d="M 290.5 31.6 H 295.4 V 45.200001 H 290.5 V 31.6 Z" class="st4" style="fill: rgb(25, 76, 116);" transform="matrix(1, 0, 0, 1, 0, 0)"/>
<path d="M 295.399994 29.200001 H 300.299994 V 45.300001 H 295.399994 V 29.200001 Z" class="st3" style="fill: rgb(194, 57, 68);" transform="matrix(1, 0, 0, 1, 0, 0)"/>



<path d="M 275.700012 193.699997 H 282.900012 V 206.999997 H 275.700012 V 193.699997 Z" class="st3" style="fill: rgb(194, 57, 68);" transform="matrix(1, 0, 0, 1, 0, 0)"/>
<path d="M 282.899994 175.399994 H 290.099994 V 206.999994 H 282.899994 V 175.399994 Z" class="st6" style="fill: rgb(49, 132, 198);" transform="matrix(1, 0, 0, 1, 0, 0)"/>
<path d="M 290 187 H 297.2 V 207 H 290 V 187 Z" class="st4" style="fill: rgb(25, 76, 116);" transform="matrix(1, 0, 0, 1, 0, 0)"/>
<path class="st9" d="M258.4,57.2l28.3,14.5c1.4,0.7,2,2.5,1.3,4l-21,40.9c-0.7,1.4-2.5,2-4,1.3l-28.3-14.5c-1.5-0.7-2-2.5-1.3-4&#10;&#9;&#9;l21-40.9C255.2,57,257,56.4,258.4,57.2z" style="fill-rule: evenodd; clip-rule: evenodd; fill: rgb(0, 0, 0);" transform="matrix(1, 0, 0, 1, 0, 0)"/>
<path class="st10" d="M250.8,107.1c0.7,0.3,0.9,1.1,0.6,1.8c-0.3,0.7-1.1,0.9-1.8,0.6c-0.7-0.3-0.9-1.1-0.6-1.8&#10;&#9;&#9;C249.3,107,250.1,106.7,250.8,107.1z" style="fill-rule: evenodd; clip-rule: evenodd; fill: rgb(232, 233, 232);" transform="matrix(1, 0, 0, 1, 0, 0)"/>
<path class="st11" d="M255,61.4l30.3,15.5l-18.8,36.7l-30.3-15.5L255,61.4z" style="fill-rule: evenodd; clip-rule: evenodd; fill: rgb(240, 240, 241);" transform="matrix(1, 0, 0, 1, 0, 0)"/>
<path class="st12" d="M236.2,98.1L255,61.4l30.3,15.5" style="fill-rule: evenodd; clip-rule: evenodd; fill: rgb(255, 255, 255);" transform="matrix(1, 0, 0, 1, 0, 0)"/>
<g transform="matrix(1, 0, 0, 1, 0, 0)" style="opacity: 0.2;">
		<g>
			<g>
				<path d="M 242.600006 94.400002 H 264.400005 V 97.000001 H 242.600006 V 94.400002 Z" transform="matrix(0.89 0.456 -0.456 0.89 71.516 -105.0695)" class="st4" style="fill: rgb(25, 76, 116);"/>
			</g>
		</g>
	</g><g transform="matrix(1, 0, 0, 1, 0, 0)" style="opacity: 0.2;">
			<g>
				<path d="M 240.800003 98.900002 H 267.700003 V 100.400002 H 240.800003 V 98.900002 Z" transform="matrix(0.89 0.456 -0.456 0.89 73.432 -104.9889)" class="st4" style="fill: rgb(25, 76, 116);"/>
			</g>
		</g><g transform="matrix(1, 0, 0, 1, 0, 0)" style="opacity: 0.2;">
			<g>
				
					<path d="M 239.699997 100.800003 H 264.399998 V 102.300003 H 239.699997 V 100.800003 Z" transform="matrix(0.8899 0.4561 -0.4561 0.8899 74.0497 -103.8039)" class="st4" style="fill: rgb(25, 76, 116);"/>
			</g>
		</g><g transform="matrix(1, 0, 0, 1, 0, 0)" style="opacity: 0.2;">
			<g>
				
					<path d="M 253 74.300003 H 277.700001 V 76.900003 H 253 V 74.300003 Z" transform="matrix(0.8899 0.4561 -0.4561 0.8899 63.695 -112.7111)" class="st4" style="fill: rgb(25, 76, 116);"/>
			</g>
		</g><g transform="matrix(1, 0, 0, 1, 0, 0)" style="opacity: 0.2;">
			<g>
				
					<path d="M 251.399994 78.199997 H 278.299994 V 79.699997 H 251.399994 V 78.199997 Z" transform="matrix(0.8899 0.4561 -0.4561 0.8899 65.1639 -112.1108)" class="st4" style="fill: rgb(25, 76, 116);"/>
			</g>
		</g><g transform="matrix(1, 0, 0, 1, 0, 0)" style="opacity: 0.2;">
			<g>
				
					<path d="M 250.5 79.400002 H 272.299999 V 80.900002 H 250.5 V 79.400002 Z" transform="matrix(0.89 0.456 -0.456 0.89 65.3188 -110.3909)" class="st4" style="fill: rgb(25, 76, 116);"/>
			</g>
		</g><g transform="matrix(1, 0, 0, 1, 0, 0)" style="opacity: 0.2;">
			<g>
				<path d="M 255 71.400002 H 281.9 V 72.900002 H 255 V 71.400002 Z" transform="matrix(0.89 0.4561 -0.4561 0.89 62.417 -114.4605)" class="st4" style="fill: rgb(25, 76, 116);"/>
			</g>
		</g>
<path d="M 246.800003 80.300003 H 258.600003 V 91.000003 H 246.800003 V 80.300003 Z" transform="matrix(0.8898999691009521, 0.4561000168323517, -0.4561000168323517, 0.8898999691009521, 66.87439727783203, -105.847900390625)" class="st4" style="fill: rgb(25, 76, 116); opacity: 0.2;"/>
<path d="M 259.700012 86.900002 H 271.500012 V 97.600001 H 259.700012 V 86.900002 Z" transform="matrix(0.8898999691009521, 0.4561000168323517, -0.4561000168323517, 0.8898999691009521, 71.32140350341797, -111.01490020751953)" class="st4" style="fill: rgb(25, 76, 116); opacity: 0.2;"/>
<path class="st4" d="M33.7,49.4h5.6c1.3,0,2.5,0.1,3.6,0.4c1.1,0.3,2,0.8,2.8,1.4c0.8,0.6,1.4,1.4,1.9,2.4c0.4,1,0.7,2.2,0.7,3.5&#10;&#9;&#9;c0,1.1-0.2,2.1-0.6,3c-0.4,0.9-0.9,1.7-1.6,2.3c-0.7,0.6-1.5,1.1-2.4,1.5c-0.9,0.3-2,0.5-3.1,0.5h-7V49.4z M39.2,60h0.3&#10;&#9;&#9;c1,0,1.7-0.2,2.3-0.7c0.6-0.5,0.9-1.2,0.9-2.1c0-1-0.3-1.8-0.8-2.3c-0.6-0.5-1.4-0.7-2.4-0.7h-0.3V60z" style="fill: rgb(25, 76, 116); opacity: 0.1;" transform="matrix(1, 0, 0, 1, 0, 0)"/><path class="st4" d="M50.3,49.4h5.5v15.2h-5.5V49.4z" style="fill: rgb(25, 76, 116); opacity: 0.1;" transform="matrix(1, 0, 0, 1, 0, 0)"/><path class="st4" d="M74.4,55.6v0.1c0,1.6-0.1,2.8-0.3,3.7c-0.2,0.9-0.7,1.8-1.5,2.6c-0.8,0.9-1.8,1.5-2.9,2&#10;&#9;&#9;c-1.1,0.5-2.3,0.7-3.5,0.7c-1.2,0-2.3-0.2-3.3-0.5c-1-0.3-1.9-0.9-2.7-1.5c-0.8-0.7-1.4-1.5-1.8-2.4c-0.4-1-0.6-2-0.6-3.2&#10;&#9;&#9;c0-1.2,0.2-2.3,0.6-3.3c0.4-1,1-1.8,1.8-2.5c0.8-0.7,1.7-1.2,2.7-1.6c1-0.4,2.1-0.5,3.3-0.5c0.7,0,1.4,0.1,2.1,0.3&#10;&#9;&#9;c0.8,0.2,1.5,0.4,2.2,0.7c0.7,0.3,1.3,0.7,1.9,1.2c0.6,0.5,1,1.1,1.3,1.7l-5.1,1.9c-0.2-0.4-0.5-0.7-0.9-0.9&#10;&#9;&#9;c-0.4-0.2-0.8-0.3-1.2-0.3c-0.9,0-1.7,0.3-2.2,1c-0.5,0.7-0.8,1.5-0.8,2.5c0,0.9,0.3,1.6,0.8,2.3c0.5,0.6,1.2,1,2.1,1&#10;&#9;&#9;c0.5,0,0.9-0.1,1.4-0.3c0.4-0.2,0.7-0.6,0.8-1h-2.5v-3.6H74.4z" style="fill: rgb(25, 76, 116); opacity: 0.1;" transform="matrix(1, 0, 0, 1, 0, 0)"/><path class="st4" d="M76.3,49.4h5.5v15.2h-5.5V49.4z" style="fill: rgb(25, 76, 116); opacity: 0.1;" transform="matrix(1, 0, 0, 1, 0, 0)"/><path class="st4" d="M83.3,49.4h11.6v4.9l-3-0.1v10.4h-5.5V54.1l-3,0.1V49.4z" style="fill: rgb(25, 76, 116); opacity: 0.1;" transform="matrix(1, 0, 0, 1, 0, 0)"/><path class="st4" d="M99.2,64.5h-5.8l5.3-15.2h6.1l5.4,15.2h-5.8l-0.5-1.9h-4.2L99.2,64.5z M102.8,59l-0.6-2.7&#10;&#9;&#9;c-0.1-0.4-0.2-1-0.3-1.9l0-0.1h-0.2l-1,4.6H102.8z" style="fill: rgb(25, 76, 116); opacity: 0.1;" transform="matrix(1, 0, 0, 1, 0, 0)"/><path class="st4" d="M111.3,49.4h5.5v10.3h4.6v4.9h-10.1V49.4z" style="fill: rgb(25, 76, 116); opacity: 0.1;" transform="matrix(1, 0, 0, 1, 0, 0)"/><path class="st4" d="M33.7,73.5h5.6c1.3,0,2.5,0.1,3.6,0.4c1.1,0.3,2,0.8,2.8,1.4c0.8,0.6,1.4,1.4,1.9,2.4c0.4,1,0.7,2.2,0.7,3.5&#10;&#9;&#9;c0,1.1-0.2,2.1-0.6,3c-0.4,0.9-0.9,1.7-1.6,2.3c-0.7,0.6-1.5,1.1-2.4,1.5c-0.9,0.3-2,0.5-3.1,0.5h-7V73.5z M39.2,84.1h0.3&#10;&#9;&#9;c1,0,1.7-0.2,2.3-0.7c0.6-0.5,0.9-1.2,0.9-2.1c0-1-0.3-1.8-0.8-2.3c-0.6-0.5-1.4-0.7-2.4-0.7h-0.3V84.1z" style="fill: rgb(25, 76, 116); opacity: 0.1;" transform="matrix(1, 0, 0, 1, 0, 0)"/><path class="st4" d="M54.7,88.6h-5.8l5.3-15.2h6.1l5.4,15.2h-5.8l-0.5-1.9h-4.2L54.7,88.6z M58.3,83.1l-0.6-2.7&#10;&#9;&#9;c-0.1-0.4-0.2-1-0.3-1.9l0-0.1h-0.2l-1,4.6H58.3z" style="fill: rgb(25, 76, 116); opacity: 0.1;" transform="matrix(1, 0, 0, 1, 0, 0)"/><path class="st4" d="M64.1,73.5h11.6v4.9l-3-0.1v10.4h-5.5V78.3l-3,0.1V73.5z" style="fill: rgb(25, 76, 116); opacity: 0.1;" transform="matrix(1, 0, 0, 1, 0, 0)"/><path class="st4" d="M80,88.6h-5.8l5.3-15.2h6.1l5.4,15.2h-5.8l-0.5-1.9h-4.2L80,88.6z M83.7,83.1L83,80.5c-0.1-0.4-0.2-1-0.3-1.9&#10;&#9;&#9;l0-0.1h-0.2l-1,4.6H83.7z" style="fill: rgb(25, 76, 116); opacity: 0.1;" transform="matrix(1, 0, 0, 1, 0, 0)"/>
<path class="st7" d="M29.1,46.2h5.6c1.3,0,2.5,0.1,3.6,0.4c1.1,0.3,2,0.8,2.8,1.4c0.8,0.6,1.4,1.4,1.9,2.4c0.4,1,0.7,2.2,0.7,3.5&#10;&#9;&#9;c0,1.1-0.2,2.1-0.6,3c-0.4,0.9-0.9,1.7-1.6,2.3c-0.7,0.6-1.5,1.1-2.4,1.5c-0.9,0.3-2,0.5-3.1,0.5h-7V46.2z M34.6,56.8h0.3&#10;&#9;&#9;c1,0,1.7-0.2,2.3-0.7c0.6-0.5,0.9-1.2,0.9-2.1c0-1-0.3-1.8-0.8-2.3c-0.6-0.5-1.4-0.7-2.4-0.7h-0.3V56.8z" style="fill: rgb(255, 255, 255);" transform="matrix(1, 0, 0, 1, 0, 0)"/><path class="st7" d="M45.7,46.2h5.5v15.2h-5.5V46.2z" style="fill: rgb(255, 255, 255);" transform="matrix(1, 0, 0, 1, 0, 0)"/><path class="st7" d="M69.8,52.5v0.1c0,1.6-0.1,2.8-0.3,3.7c-0.2,0.9-0.7,1.8-1.5,2.6c-0.8,0.9-1.8,1.5-2.9,2&#10;&#9;&#9;c-1.1,0.5-2.3,0.7-3.5,0.7c-1.2,0-2.3-0.2-3.3-0.5c-1-0.3-1.9-0.9-2.7-1.5c-0.8-0.7-1.4-1.5-1.8-2.4c-0.4-1-0.6-2-0.6-3.2&#10;&#9;&#9;c0-1.2,0.2-2.3,0.6-3.3c0.4-1,1-1.8,1.8-2.5c0.8-0.7,1.7-1.2,2.7-1.6c1-0.4,2.1-0.5,3.3-0.5c0.7,0,1.4,0.1,2.1,0.3&#10;&#9;&#9;c0.8,0.2,1.5,0.4,2.2,0.7c0.7,0.3,1.3,0.7,1.9,1.2c0.6,0.5,1,1.1,1.3,1.7l-5.1,1.9c-0.2-0.4-0.5-0.7-0.9-0.9&#10;&#9;&#9;c-0.4-0.2-0.8-0.3-1.2-0.3c-0.9,0-1.7,0.3-2.2,1c-0.5,0.7-0.8,1.5-0.8,2.5c0,0.9,0.3,1.6,0.8,2.3c0.5,0.6,1.2,1,2.1,1&#10;&#9;&#9;c0.5,0,0.9-0.1,1.4-0.3c0.4-0.2,0.7-0.6,0.8-1h-2.5v-3.6H69.8z" style="fill: rgb(255, 255, 255);" transform="matrix(1, 0, 0, 1, 0, 0)"/><path class="st7" d="M71.7,46.2h5.5v15.2h-5.5V46.2z" style="fill: rgb(255, 255, 255);" transform="matrix(1, 0, 0, 1, 0, 0)"/><path class="st7" d="M78.7,46.2h11.6v4.9l-3-0.1v10.4h-5.5V51l-3,0.1V46.2z" style="fill: rgb(255, 255, 255);" transform="matrix(1, 0, 0, 1, 0, 0)"/><path class="st7" d="M94.6,61.4h-5.8L94,46.2h6.1l5.4,15.2h-5.8l-0.5-1.9H95L94.6,61.4z M98.2,55.9l-0.6-2.7&#10;&#9;&#9;c-0.1-0.4-0.2-1-0.3-1.9l0-0.1H97l-1,4.6H98.2z" style="fill: rgb(255, 255, 255);" transform="matrix(1, 0, 0, 1, 0, 0)"/><path class="st7" d="M106.7,46.2h5.5v10.3h4.6v4.9h-10.1V46.2z" style="fill: rgb(255, 255, 255);" transform="matrix(1, 0, 0, 1, 0, 0)"/><path class="st7" d="M29.1,70.4h5.6c1.3,0,2.5,0.1,3.6,0.4c1.1,0.3,2,0.8,2.8,1.4c0.8,0.6,1.4,1.4,1.9,2.4c0.4,1,0.7,2.2,0.7,3.5&#10;&#9;&#9;c0,1.1-0.2,2.1-0.6,3c-0.4,0.9-0.9,1.7-1.6,2.3c-0.7,0.6-1.5,1.1-2.4,1.5c-0.9,0.3-2,0.5-3.1,0.5h-7V70.4z M34.6,81h0.3&#10;&#9;&#9;c1,0,1.7-0.2,2.3-0.7c0.6-0.5,0.9-1.2,0.9-2.1c0-1-0.3-1.8-0.8-2.3c-0.6-0.5-1.4-0.7-2.4-0.7h-0.3V81z" style="fill: rgb(255, 255, 255);" transform="matrix(1, 0, 0, 1, 0, 0)"/><path class="st7" d="M50.1,85.5h-5.8l5.3-15.2h6.1L61,85.5h-5.8l-0.5-1.9h-4.2L50.1,85.5z M53.8,80l-0.6-2.7&#10;&#9;&#9;c-0.1-0.4-0.2-1-0.3-1.9l0-0.1h-0.2l-1,4.6H53.8z" style="fill: rgb(255, 255, 255);" transform="matrix(1, 0, 0, 1, 0, 0)"/><path class="st7" d="M59.5,70.4h11.6v4.9l-3-0.1v10.4h-5.5V75.1l-3,0.1V70.4z" style="fill: rgb(255, 255, 255);" transform="matrix(1, 0, 0, 1, 0, 0)"/><path class="st7" d="M75.4,85.5h-5.8l5.3-15.2h6.1l5.4,15.2h-5.8L80,83.6h-4.2L75.4,85.5z M79.1,80l-0.6-2.7&#10;&#9;&#9;c-0.1-0.4-0.2-1-0.3-1.9l0-0.1h-0.2l-1,4.6H79.1z" style="fill: rgb(255, 255, 255);" transform="matrix(1, 0, 0, 1, 0, 0)"/>
<path class="st4" d="M57.7,137c0,0-33.4,6-25.2,30.2c8.2,24.2,38.4,8.7,38.4,8.7c0.1-0.1,0.3-0.1,0.4-0.2l-13.1-38.9&#10;&#9;&#9;C58,136.9,57.9,137,57.7,137z" style="fill: rgb(0, 0, 0);" transform="matrix(1, 0, 0, 1, 0, 0)"/>
<path d="M 146.400006 132.899994 A 11.3 11.3 0 0 1 135.100006 144.199994 A 11.3 11.3 0 0 1 123.800006 132.899994 A 11.3 11.3 0 0 1 135.100006 121.599994 A 11.3 11.3 0 0 1 146.400006 132.899994 Z" class="st6" style="fill: rgb(0, 0, 0);" transform="matrix(1, 0, 0, 1, 0, 0)"/>
<path class="st3" d="M58.2,136.9l13.1,38.9c48.3-18.7,73.8,2,73.8,2l-14.7-43.6l-14.7-43.6C115.7,90.6,107.9,122.5,58.2,136.9z" style="fill: rgb(254, 215, 6);" transform="matrix(1, 0, 0, 1, 0, 0)"/>
<path d="M 130.600006 87.300003 H 135.500006 V 181.600006 H 130.600006 V 87.300003 Z" transform="matrix(0.9475001096725464, -0.3198000192642212, 0.3198000192642212, 0.9475001096725464, -36.016799926757784, 49.60219955444336)" class="st4" style="fill: rgb(0, 0, 0);"/>
<g transform="matrix(0.6758618693856541, 0, 0, 0.6758618693856541, 100.54482063161356, 38.552066336608064)"><linearGradient id="gradient-1" gradientUnits="userSpaceOnUse" x1="54.4817" y1="66.4817" x2="177.5183" y2="189.5183">
						<stop offset="0" style="stop-color:#85C238"/>
						<stop offset="0.1787" style="stop-color:#81C138"/>
						<stop offset="0.3518" style="stop-color:#75BC3A"/>
						<stop offset="0.5226" style="stop-color:#62B53B"/>
						<stop offset="0.6921" style="stop-color:#47AB3E"/>
						<stop offset="0.8588" style="stop-color:#249F42"/>
						<stop offset="1" style="stop-color:#009245"/>
					</linearGradient><g transform="matrix(1, 0, 0, 1, 0, 0)"/></g></svg>