<?xml version="1.0" encoding="utf-8"?>
<!-- Generator: Adobe Illustrator 15.1.0, SVG Export Plug-In . SVG Version: 6.00 Build 0)  -->
<!DOCTYPE svg PUBLIC "-//W3C//DTD SVG 1.1//EN" "http://www.w3.org/Graphics/SVG/1.1/DTD/svg11.dtd">
<svg version="1.1" id="www.zulu-shirts.de" xmlns="http://www.w3.org/2000/svg" xmlns:xlink="http://www.w3.org/1999/xlink" x="0px"
	 y="0px" width="779px" height="599px" viewBox="0 0 779 599" enable-background="new 0 0 779 599" xml:space="preserve">
<g>
	<g>
		<path fill="#D8B78B" d="M514.385,294.685c1.003,7.233,2.435,31.765,10.742,35.76c26.907,12.938,36.341-47.829,39.328-62.465
			c2.977-14.563-1.146-48.832-23.245-40.594c-0.727,0.27-1.248,0.604-1.626,0.975c-9.638-4.158-20.708-3.09-24.228,8.699
			C510.139,254.531,511.919,277.006,514.385,294.685z"/>
	</g>
	<g>
		<path fill="#D8B78B" d="M263.355,237.06c-3.514-11.789-14.589-12.857-24.232-8.699c-0.368-0.37-0.89-0.705-1.616-0.975
			c-22.099-8.238-26.227,26.03-23.255,40.594c2.987,14.636,12.43,75.402,39.337,62.465c8.308-3.995,9.735-28.526,10.743-35.76
			C266.788,277.006,268.568,254.531,263.355,237.06z"/>
	</g>
	<g>
		<path fill="#7F512E" d="M295.567,397.892c-2.665-0.409-5.299-0.929-7.908-1.53c-0.476,0.09-0.977,0.164-1.458,0.254
			c12.604,6.926,27.342,9.755,43.573,10.834c0.005-0.086,0.046-0.166,0.062-0.253C320.315,406.122,307.205,401.817,295.567,397.892z
			"/>
		<path fill="#1A171B" d="M332.26,410.286l-2.66-0.223c-18.912-1.259-33.102-4.801-44.663-11.153l-6.42-3.527l9.198-1.696
			l0.532,0.123c2.548,0.585,5.116,1.095,7.719,1.493c12.559,4.197,25.147,8.274,34.161,9.29l2.772,0.314l-0.486,2.745
			L332.26,410.286z"/>
	</g>
	<g>
		<path fill="#7F512E" d="M389.732,117.867c-82.481,0-149.351,58.781-149.351,144.89c0,65.692,11.172,101.872,29.997,121.712
			c0.159,0.013,0.312,0,0.481,0.046c15.51,4.23,31.639,1.941,47.21,6.327c7.489,2.111,17.167,3.799,23.055,9.364
			c0.241,0.063,0.456,0.182,0.67,0.302c0.337-0.125,0.655-0.283,1.002-0.391c3.233-1.006,4.609,4.054,1.392,5.049
			c-0.824,0.256-1.617,0.59-2.404,0.936c-0.588,0.959-1.581,1.348-2.558,1.215c-0.368,0.188-0.742,0.361-1.11,0.551
			c16.088,0.523,33.46-0.223,51.615-0.223c82.492,0,149.361,15.906,149.361-144.888
			C539.093,182.736,472.224,117.867,389.732,117.867z"/>
		<path d="M429.1,410.698L429.1,410.698c-6.158,0-12.471-0.104-18.911-0.212c-13.295-0.221-27.357-0.223-40.622-0.014
			c-10.942,0.177-21.485,0.34-31.537,0.011l-10.098-0.327l10.84-5.545l0.808,0.109l0.43-0.698l0.722-0.319
			c0.266-0.115,0.532-0.23,0.798-0.344l-2.205-1.25c-4.399-4.162-11.602-6.029-17.95-7.676c-1.381-0.358-2.732-0.709-4.016-1.069
			c-7.607-2.144-15.612-2.655-23.357-3.148c-7.821-0.499-15.909-1.013-23.833-3.175l-0.998-0.081l-0.691-0.688
			c-20.958-22.085-30.718-61.334-30.718-123.515c0-84.093,65.334-147.509,151.97-147.509c83.801,0,151.98,66.174,151.98,147.509
			c0,63.381-10.165,103.054-31.992,124.853C490.47,406.834,464.596,410.698,429.1,410.698z M389.732,405.025
			c6.967,0,13.827,0.112,20.544,0.225c6.41,0.105,12.696,0.21,18.824,0.21c34.161,0,58.945-3.606,76.916-21.557
			c20.779-20.753,30.458-59.249,30.458-121.146c0-78.448-65.826-142.271-146.742-142.271C306.079,120.486,243,181.649,243,262.757
			c0,60.14,9.116,98.084,28.677,119.267c7.366,1.99,14.794,2.463,22.656,2.965c8.016,0.512,16.303,1.041,24.447,3.332
			c1.248,0.354,2.563,0.693,3.908,1.044c6.625,1.716,14.093,3.655,19.434,8.22c2.967-0.885,5.98,1.146,6.456,4.267
			c0.195,1.308-0.066,2.556-0.69,3.576c6.998,0.036,14.211-0.071,21.592-0.189C376.1,405.133,382.862,405.025,389.732,405.025z"/>
	</g>
	<g>
		<path fill="#D8B78B" d="M389.722,173.533c-139.774-29.28-122.996,64.754-122.996,139.13c0,27.531,7.597,53.119,20.6,74.448
			c10.271,0.833,20.625,0.879,30.744,3.73c7.489,2.111,17.167,3.799,23.055,9.364c0.241,0.063,0.456,0.182,0.67,0.302
			c0.337-0.125,0.655-0.283,1.002-0.391c3.233-1.006,4.609,4.054,1.392,5.049c-0.824,0.256-1.617,0.59-2.404,0.936
			c-0.588,0.959-1.581,1.348-2.558,1.215c-2.036,1.039-4.062,2.123-6.251,2.842c-2.118,0.695-3.396-1.248-3.141-2.962
			c-9.52-1.074-22.631-5.379-34.269-9.305c-0.368-0.057-0.727-0.151-1.095-0.212c22.651,30.291,57.14,49.647,95.787,49.647
			c68.214,0,123.522-60.29,123.522-134.664C513.781,238.287,513.126,144.253,389.722,173.533z"/>
		<path d="M390.259,450.473c-38.284,0-74.112-18.556-98.309-50.908l-4.691-6.279l9.315,1.624
			c12.093,4.079,24.651,8.149,33.614,9.159l3.243,0.365l-0.353,2.361c1.31-0.535,2.665-1.23,4.087-1.959l1.509-0.77l0.614,0.084
			l0.328-0.535l0.721-0.316l-1.376-0.807c-4.302-4.066-11.433-5.916-17.72-7.547c-1.386-0.361-2.737-0.711-4.026-1.074
			c-7.576-2.137-15.224-2.627-23.321-3.146c-2.276-0.146-4.553-0.294-6.824-0.479l-1.596-0.127l-0.834-1.371
			c-13.781-22.598-21.06-48.906-21.06-76.085c0-7.128-0.153-14.436-0.312-21.799c-0.854-40.287-1.734-81.947,21.899-106.085
			c19.873-20.298,53.789-24.986,104.514-14.469c15.3-3.589,29.337-5.407,41.726-5.407c85.52,0,85.52,85.402,85.52,147.76
			C516.927,388.652,460.104,450.473,390.259,450.473z M303.516,403.841c22.662,25.759,53.758,40.341,86.743,40.341
			c66.373,0,120.376-59,120.376-131.519c0-63.027,0-141.465-79.228-141.465c-12.083,0-25.863,1.815-40.959,5.396l-0.686,0.164
			l-0.686-0.146c-48.607-10.186-81.105-6.134-99.414,12.57c-21.781,22.245-20.927,62.56-20.104,101.547
			c0.159,7.407,0.312,14.761,0.312,21.933c0,25.473,6.676,50.134,19.316,71.435c1.704,0.128,3.407,0.235,5.11,0.346
			c8.067,0.52,16.405,1.053,24.626,3.371c1.248,0.35,2.552,0.69,3.898,1.038c6.594,1.711,14.016,3.634,19.434,8.151
			c3.161-0.765,6.338,1.436,6.844,4.768c0.44,2.908-1.197,5.54-3.98,6.399c-0.46,0.144-0.911,0.319-1.355,0.507
			c-0.992,1.063-2.343,1.708-3.806,1.801c-1.883,0.964-3.832,1.959-6,2.67c-2.179,0.709-4.43,0.109-5.862-1.553
			c-0.404-0.471-0.731-1.01-0.972-1.588C320.259,408.949,311.982,406.567,303.516,403.841z"/>
	</g>
	<g>
		<path fill="#FFFFFF" d="M364.738,272.535c0-24.689-15.643-44.706-34.949-44.706c-19.295,0-34.943,20.017-34.943,44.706
			c0,24.692,15.648,44.709,34.943,44.709C349.095,317.244,364.738,297.228,364.738,272.535z"/>
		<path d="M329.789,319.863c-20.712,0-37.563-21.231-37.563-47.328s16.85-47.325,37.563-47.325
			c20.713,0,37.568,21.229,37.568,47.325S350.502,319.863,329.789,319.863z M329.789,230.448c-17.822,0-32.324,18.881-32.324,42.087
			c0,23.209,14.502,42.09,32.324,42.09c17.828,0,32.33-18.881,32.33-42.09C362.119,249.329,347.617,230.448,329.789,230.448z"/>
	</g>
	<g>
		<path fill="#FFFFFF" d="M485.217,272.535c0-24.689-15.644-44.706-34.949-44.706c-19.295,0-34.938,20.017-34.938,44.706
			c0,24.692,15.643,44.709,34.938,44.709C469.573,317.244,485.217,297.228,485.217,272.535z"/>
		<path d="M450.268,319.863c-20.707,0-37.557-21.231-37.557-47.328s16.85-47.325,37.557-47.325
			c20.713,0,37.568,21.229,37.568,47.325S470.98,319.863,450.268,319.863z M450.268,230.448c-17.822,0-32.319,18.881-32.319,42.087
			c0,23.209,14.497,42.09,32.319,42.09c17.827,0,32.33-18.881,32.33-42.09C482.598,249.329,468.095,230.448,450.268,230.448z"/>
	</g>
	<g>
		<path d="M317.983,288.051c0,12.169,6.313,22.034,14.098,22.034c7.791,0,14.103-9.865,14.103-22.034
			c0-12.168-6.313-22.032-14.103-22.032C324.295,266.019,317.983,275.883,317.983,288.051z"/>
	</g>
	<g>
		<path d="M433.223,288.051c0,12.169,6.313,22.034,14.099,22.034c7.796,0,14.108-9.865,14.108-22.034
			c0-12.168-6.313-22.032-14.108-22.032C439.535,266.019,433.223,275.883,433.223,288.051z"/>
	</g>
	<g>
		<path fill="#D8B78B" d="M542.807,389.293c0,50.722-68.537,91.84-153.069,91.84c-84.533,0-153.064-41.118-153.064-91.84
			c0-50.72,68.532-91.838,153.064-91.838C474.27,297.455,542.807,338.573,542.807,389.293z"/>
		<path d="M389.737,483.752c-85.842,0-155.684-42.374-155.684-94.459c0-52.083,69.841-94.457,155.684-94.457
			c85.847,0,155.688,42.374,155.688,94.457C545.426,441.378,475.584,483.752,389.737,483.752z M389.737,300.074
			c-82.958,0-150.445,40.023-150.445,89.219c0,49.197,67.488,89.221,150.445,89.221c82.957,0,150.45-40.023,150.45-89.221
			C540.188,340.098,472.694,300.074,389.737,300.074z"/>
	</g>
	<g>
		<path d="M245.159,327.659c-0.021,0.003-2.465,0.567-5.913-1.545c-5.366-3.284-12.799-12.638-17.802-38.742
			c-2.937-10.898-4.461-19.723-5.003-26.866c-0.107-1.43-0.174-2.79-0.21-4.087c-0.322-12.978,2.982-19.549,6.614-22.863
			c5.791-5.282,14.262-4.067,18.19-3.103c1.31,0.319,2.118,0.613,2.148,0.626l1.836-4.908c-0.634-0.235-15.566-5.69-25.674,3.486
			c-8.809,7.998-10.661,24.253-5.576,48.254c0.721,3.415,1.586,6.988,2.588,10.717c4.266,22.266,11.049,36.384,20.15,41.955
			c3.177,1.946,5.939,2.381,7.78,2.381c1.299,0,2.144-0.22,2.333-0.276L245.159,327.659z"/>
	</g>
	<g>
		<path d="M559.656,229.657c-10.098-9.174-25.035-3.722-25.669-3.486l1.831,4.908c0.123-0.051,12.636-4.56,20.339,2.477
			c0.368,0.33,0.727,0.695,1.085,1.095c4.941,5.594,8.584,18.192,1.893,46.543c-0.471,1.981-0.992,4.038-1.565,6.179l0,0
			c-0.021,0.067-0.03,0.123-0.051,0.189c-4.891,25.569-12.206,34.987-17.485,38.384c-3.58,2.308-6.138,1.727-6.189,1.714
			l-1.463,5.028c0.194,0.057,1.033,0.276,2.343,0.276c1.831,0,4.604-0.438,7.775-2.381c9.116-5.581,15.899-19.726,20.124-41.85
			C570.706,258.662,569.714,238.786,559.656,229.657z"/>
	</g>
	<g>
		<path d="M292.938,227.479c0.138,2.943,2.803-2.354,4.629-4.039c3.1-2.856,7.413-5.174,11.75-7.235
			c10.947-5.197,24.186-7.164,36.581-7.423c2.553-0.054,3.095-16.009-2.538-15.889c-27.388,0.565-57.472,12.213-56.582,31.24
			c0.123,2.678,0.245,7.665,3.55,9.453C292.799,234.929,292.958,227.816,292.938,227.479L292.938,227.479z"/>
	</g>
	<g>
		<path d="M481.431,221.452c1.09,2.739-3.519-0.989-5.877-1.772c-4.001-1.327-8.886-1.66-13.689-1.755
			c-12.113-0.225-24.994,3.436-36.391,8.306c-2.349,1.002-9.413-13.313-4.23-15.525c25.188-10.766,57.4-12.543,64.429,5.164
			c0.987,2.488,2.926,7.085,0.654,10.074C484.628,228.185,481.554,221.77,481.431,221.452L481.431,221.452z"/>
	</g>
	<g>
		<path fill="#FFFFFF" d="M490.22,422.344c0,0-42.09-58.465-143.933-14.861l-2.527-0.293
			C393.185,427.014,441.382,453.831,490.22,422.344z"/>
	</g>
	<g>
		<path d="M492.184,420.932c-0.435-0.606-44.371-59.503-146.782-15.702c-0.256-0.103-6.712,2.349-6.978,2.483
			c7.115,2.771,14.2,5.696,21.234,8.638c29.966,12.54,60.639,25.378,91.489,22.354c13.443-1.32,26.918-5.65,40.382-14.328
			l2.138-1.381L492.184,420.932z M361.525,411.887c-3.248-1.355-6.497-2.719-9.765-4.063c84.773-34.343,126.299,4.43,134.822,13.942
			C445.183,446.89,404.516,429.879,361.525,411.887z"/>
	</g>
	<g>
		<path d="M490.225,424.763c-0.087,0-0.169-0.005-0.256-0.013l-143.933-14.86c-1.325-0.138-2.292-1.325-2.154-2.655
			c0.138-1.334,1.345-2.266,2.655-2.158l143.933,14.86c1.325,0.138,2.292,1.325,2.154,2.655
			C492.496,423.837,491.447,424.763,490.225,424.763z"/>
	</g>
	<g>
		<path d="M379.235,424.205c-0.036,0-0.072,0-0.107-0.002c-1.335-0.059-2.369-1.189-2.313-2.525l1.156-25.863
			c0.062-1.335,1.202-2.461,2.527-2.31c1.335,0.06,2.369,1.189,2.313,2.524l-1.156,25.863
			C381.593,423.192,380.524,424.205,379.235,424.205z"/>
	</g>
	<g>
		<path d="M403.825,433.227c-0.026,0-0.051,0-0.077,0c-1.335-0.043-2.384-1.158-2.343-2.494l1.202-38.99
			c0.041-1.334,1.176-2.273,2.496-2.345c1.335,0.044,2.384,1.159,2.343,2.493l-1.202,38.99
			C406.204,432.19,405.129,433.227,403.825,433.227z"/>
	</g>
	<g>
		<path d="M429.954,437.334c-0.021,0-0.035,0-0.056,0c-1.336-0.033-2.395-1.141-2.363-2.476l1.002-42.722
			c0.031-1.338,0.982-2.399,2.477-2.363c1.335,0.033,2.394,1.141,2.363,2.476l-1.003,42.722
			C432.344,436.288,431.264,437.334,429.954,437.334z"/>
	</g>
	<g>
		<line fill="#FFFFFF" x1="459.905" y1="401.007" x2="458.447" y2="434.344"/>
		<rect x="456.555" y="400.991" transform="matrix(0.999 0.044 -0.044 0.999 18.8025 -19.7792)" width="5.243" height="33.369"/>
	</g>
</g>
</svg>
